  <?xml version="1.0" encoding="UTF-8"?>

  <svg version="1.1" xmlns="http://www.w3.org/2000/svg" xmlns:xlink="http://www.w3.org/1999/xlink" width="3008" height="1536" xml:space="preserve">
        <g>
            <path cs="100,100" d="M0.5,0.5 L3007.5,0.5 L3007.5,1535.5 L0.5,1535.5 Z" fill="#000000" stroke="#000000" fill-opacity="1" stroke-width="1" stroke-opacity="1" class="amcharts-bg"></path>
        </g>
        <g>
            <g transform="translate(314.41699357512397,542.2970770147792) scale(1)">
                <g transform="translate(0,0) scale(2.3596750965522304)">
                    <path cs="100,100" d="M619.874,393.722L620.373,393.573L620.477,394.411L622.671,393.93L624.99,394.009L626.684,394.1L628.604,392.028L630.695,390.054L632.467,388.146L633.001,389.202L633.382,391.639L631.949,391.651L631.72,393.648L632.216,394.073L630.947,394.674L630.939,395.919L630.122,397.175L630.049,398.394L629.484,399.032L621.056,397.508L619.981,394.428z" transform="translate(0,-230)" stroke-width="0.4237871567408244" fill="#818181" fill-opacity="1" stroke="#000000" stroke-opacity="1" class="amcharts-map-area amcharts-map-area-AE" role="menuitem" aria-label="United Arab Emirates  " countryId="AE"></path>
                    <path cs="100,100" d="M1008.267,215.754l-2.78,2.973l-4.596,0.698l-0.069,6.463l-1.123,1.347l-2.625,-0.193l-2.138,-2.264l-3.728,-1.917l-0.627,-2.89l-2.848,-1.102l-3.188,0.875l-1.523,-2.369l0.609,-2.552l-3.358,1.635l1.265,3.194l-1.591,2.833l-0.021,0.036l-3.604,2.885l-3.634,-0.478l2.529,3.442l1.669,5.201l1.295,1.668l0.325,2.532l-0.724,1.602l-5.226,-1.317l-7.837,4.511l-2.493,0.688l-4.29,4.096l-4.07,3.505l-1.03,2.553l-4.011,-3.9l-7.306,4.419l-1.275,-2.078l-2.701,2.394l-3.75,-0.763l-0.903,3.631l-3.364,5.218l0.101,2.137l3.193,1.174l-0.376,7.458l-2.603,0.186l-1.201,4.154l1.167,2.104l-4.903,2.467l-0.973,5.405l-4.181,1.135l-0.84,4.663l-4.042,4.183l-1.036,-3.085l-1.201,-6.693l-1.564,-10.647l1.348,-6.954l2.365,-3.071l0.146,-2.441l4.357,-1.18l5.009,-6.781l4.826,-5.727l5.04,-4.57l2.254,-8.366l-3.406,0.511l-1.685,4.922l-7.111,6.361l-2.297,-7.138l-7.238,1.999l-7.018,9.56l2.315,3.377l-6.258,1.419l-4.335,0.557l0.203,-3.946l-4.358,-0.839l-3.474,2.702l-8.573,-0.941l-9.223,1.62l-9.083,10.33l-10.745,11.777l4.417,0.61l1.379,3.001l2.724,1.055l1.794,-2.378l3.076,0.311l4.048,5.191l0.095,3.924l-2.191,4.512l-0.237,5.266l-1.265,6.848l-4.226,6.013l-0.939,2.817l-3.806,4.662l-3.777,4.528l-1.811,2.283l-3.736,2.245l-1.769,0.049l-1.761,-1.858l-3.764,2.792l-0.438,1.258l-0.393,-0.661l-0.017,-1.929l1.432,-0.103l0.404,-4.553l-0.739,-3.358l2.407,-1.399l3.402,0.703l1.886,-3.888l0.961,-4.462l1.089,-1.511l1.474,-3.761l-4.634,1.239l-2.431,1.647l-4.261,-0.005l-1.135,-3.945l-3.321,-3.035l-4.88,-1.379l-1.037,-4.284l-0.977,-2.731l-1.051,-1.937l-1.733,-4.611l-2.462,-1.711l-4.196,-1.394l-3.718,0.127l-3.484,0.845l-2.315,2.313l1.538,1.095l0.035,2.522l-1.56,1.45l-2.531,4.725l0.026,1.929l-3.952,2.739l-3.365,-1.632l-3.346,0.361l-1.468,-1.457l-1.682,-0.472l-4.106,3.059l-3.691,0.712l-2.577,1.062l-3.532,-0.697l-2.6,0.045l-1.702,-2.203l-2.746,-2.092l-2.81,-0.577l-3.547,0.573l-2.65,0.809l-3.983,-1.841l-0.534,-3.322l-3.297,-1.151l-2.545,-0.527l-3.141,-1.871l-2.904,4.659l1.139,2.6l-2.726,3.034l-4.054,-1.09l-2.799,-0.156l-1.874,-2.042l-2.925,-0.065l-2.438,-1.354l-4.265,2.071l-5.35,3.739l-2.956,0.744l-1.098,0.352l-1.487,-2.634l-3.612,0.579l-1.193,-1.843l-1.96,-0.848l-1.35,-2.545l-1.548,-0.799l-4.029,1.14l-3.862,-2.565l-1.494,2.333l-6.266,-11.576l-3.577,-3.659l1.025,-1.504l-7.026,4.494l-2.689,0.268l0.232,-2.583l-3.602,-1.631l-2.927,1.166l-0.883,-5.012l-5.039,-1.059l-2.521,2.033l-7.016,1.791l-1.369,1.189l-10.492,1.663l-1.285,1.618l2.024,3.208l-2.692,1.204l0.525,1.254l-2.691,2.223l4.544,3.098l-0.702,2.106l-3.938,-0.191l-0.814,1.31l-3.586,-2.293l-4.445,0.089l-2.976,1.868l-3.319,-1.791l-6.181,-3.102l-4.38,0.117l-5.788,4.849l-0.349,3.193l-2.883,-2.532l-2.237,4.77l0.819,0.874l-1.618,3.215l2.38,2.837l2.081,-0.116l1.787,2.76l-0.284,2.102l1.424,0.656l-1.278,2.391l-2.718,0.66l-2.787,4.088l2.548,3.695l-0.276,2.586l3.062,4.456l-1.674,1.506l-0.481,0.945l-1.241,-0.253l-1.927,-2.266l-0.788,-0.126l-1.763,-0.871l-0.858,-1.55l-2.615,-0.794l-1.7,0.597l-0.491,-0.706l-3.818,-1.831l-4.128,-0.622l-2.37,-0.658l-0.342,0.455l-3.575,-3.274l-3.199,-1.477l-2.422,-2.319l2.041,-0.636l2.327,-3.354l-1.568,-1.605l4.132,-1.667l-0.074,-0.899l-2.517,0.663l0.088,-1.832l1.445,-1.159l2.713,-0.306l0.441,-1.395l-0.62,-2.327l1.139,-2.233l-0.033,-1.263l-4.133,-1.409l-1.639,0.047l-1.73,-2.043l-2.151,0.693l-3.561,-1.542l0.061,-0.868l-0.997,-1.926l-2.236,-0.216l-0.232,-1.392l0.7,-0.913l-1.792,-2.575l-2.907,0.442l-0.852,-0.229l-0.708,1.037l-1.047,-0.184l-0.689,-2.937l-0.658,-1.54l0.54,-0.435l2.262,0.162l1.091,-1.022l-0.808,-1.253l-1.891,-0.832l0.169,-0.857l-1.141,-0.87l-1.758,-3.153l0.601,-1.314l-0.274,-2.308l-2.741,-1.183l-1.471,0.593l-0.398,-1.236l-2.952,-1.256l-0.901,-2.989l-0.239,-2.492l-1.351,-1.194l1.201,-1.659l-0.832,-4.962l1.995,-3.133l-0.422,-0.959l3.187,-3.071l-2.938,-2.684l6.003,-7.405l2.604,-3.453l1.055,-3.104l-4.15,-4.256l1.146,-4.145l-2.524,-4.854l1.888,-5.764l-3.261,-7.957l2.587,-5.478l-4.294,-4.99l0.409,-5.404l2.265,-0.724l4.771,-3.188l2.893,-2.813l4.606,4.86l7.678,1.876l10.594,8.646l2.152,3.508l0.185,4.796l-3.113,3.695l-4.578,1.846l-12.517,-5.313l-2.059,0.9l4.571,5.097l0.179,3.154l0.183,6.753l3.61,1.966l2.191,1.657l0.362,-3.107l-1.689,-2.801l1.785,-2.505l6.778,4.099l2.361,-1.593l-1.887,-4.877l6.535,-6.742l2.588,0.404l2.618,2.43l1.633,-4.811l-2.338,-4.283l1.373,-4.406l-2.061,-4.692l7.843,2.442l1.602,4.183l-3.55,0.908l0.019,4.038l2.207,2.438l4.332,-1.541l0.686,-4.611l5.857,-3.525l9.785,-6.543l2.114,0.382l-2.764,4.64l3.478,0.785l2.009,-2.584l5.255,-0.211l4.164,-3.193l3.195,4.621l3.186,-5.087l-2.938,-4.577l1.458,-2.663l8.282,2.443l3.881,2.488l10.161,8.799l1.875,-3.975l-2.85,-4.111l-0.082,-1.677l-3.379,-0.782l0.925,-3.827l-1.5,-6.491l-0.085,-2.737l5.175,-7.99l1.84,-8.419l2.085,-1.878l7.423,2.514l0.585,5.183l-2.658,7.283l1.744,2.779l0.902,5.938l-0.637,11.073l3.093,4.73l-1.203,5.008l-5.492,10.198l3.205,1.024l1.115,-2.514l3.085,-1.815l0.744,-3.553l2.427,-3.489l-1.634,-4.26l1.309,-5.083l-3.066,-0.644l-0.674,-4.418l2.237,-8.278l-3.642,-7.033l5.018,-6.042l-0.648,-6.619l1.398,-0.216l1.473,5.189l-1.105,8.667l3,1.592l-1.278,-6.373l4.692,-3.579l5.819,-0.488l5.181,5.18l-2.493,-7.622l-0.279,-10.282l4.876,-2.021l6.744,0.444l6.075,-1.321l-2.278,-5.381l3.245,-7.016l3.221,-0.3l5.452,-5.513l7.403,-1.514l0.936,-3.153l7.362,-1.082l2.294,2.606l6.293,-6.237l5.151,0.199l0.772,-5.238l2.68,-5.334l6.619,-5.312l4.809,4.208l-3.818,3.131l6.352,1.917l0.757,6.034l2.562,-2.943l8.197,0.163l6.32,5.843l2.251,4.351l-0.698,5.854l-3.102,3.242l-7.368,5.917l-2.106,3.079l3.477,1.433l4.148,2.552l2.523,-1.91l1.431,6.393l1.231,-2.559l4.483,-1.575l8.996,1.646l0.684,4.576l11.722,1.43l0.16,-7.473l5.95,1.742l4.477,-0.054l4.527,5.138l1.291,6.038l-1.659,3.836l3.521,6.982l4.41,3.493l2.705,-9.178l4.498,3.996l4.778,-2.376l5.427,2.716l2.065,-2.475l4.587,1.242l-2.024,-8.398l3.702,-4.067l25.323,6.061l2.387,5.355l7.34,6.653l11.322,-1.623l5.582,1.414l2.334,3.498l-0.341,6.016l3.454,2.286l3.753,-1.641l4.973,-0.211l5.293,1.575l5.314,-0.887l4.884,6.994l3.475,-2.483l-2.268,-5.074l1.249,-3.618l8.945,2.286l5.832,-0.486l8.064,3.843l3.925,3.44l6.869,5.858l7.352,7.341l-0.241,4.437l1.891,1.745l-0.65,-5.146l7.611,1.068L1008.267,215.754zM880.842,306.251l-2.821,-7.684l-1.157,-4.509l0.072,-4.496l-0.971,-4.503l-0.729,-3.15l-1.248,0.673l1.113,2.205l-2.592,2.166l-0.248,6.296l1.643,4.411l-0.123,5.852l-0.649,3.237l0.32,4.537l-0.313,4.015l0.52,3.4l1.838,-3.134l2.125,2.445l0.078,-2.836l-2.732,-4.229l1.725,-6.107L880.842,306.251zM537.823,278.766l-2.936,-0.856l-3.869,1.583l-0.639,2.127l3.453,0.545l5.156,-0.072l-0.225,-1.228l0.299,-1.327L537.823,278.766zM979.946,178.648l3.662,-0.52l2.889,-2.065l0.24,-1.188l-4.056,-2.515l-2.376,-0.019l-0.359,0.371l-3.574,3.645l0.5,2.726L979.946,178.648zM870.068,151.559l-2.66,3.915l0.491,0.518l5.746,1.084l4.251,-0.068l-0.339,-2.569l-3.983,-3.81L870.068,151.559zM894.642,142.031l3.241,-4.248l-7.036,-2.875l-5.227,-1.681l-0.671,3.585l5.211,4.267L894.642,142.031zM869.514,140.337l10.335,0.296l2.205,-8.145l-10.135,-6.071l-7.404,-0.512l-3.699,2.18l-1.507,7.752l5.555,7.013L869.514,140.337zM622.395,166.284l-2.867,1.958l0.41,4.832l5.075,2.348l0.744,3.818l9.161,1.102l1.656,-0.743l-5.363,-7.106l-0.57,-7.516l4.395,-9.143l4.179,-9.819l8.71,-10.168l8.563,-5.338l9.935,-5.74l1.884,-3.706l-1.949,-4.827l-5.457,1.604l-4.802,4.492l-9.332,2.222l-9.257,7.409l-6.271,5.849l0.759,4.87l-6.713,9.029l2.578,1.22l-5.562,8.271L622.395,166.284zM769.869,98.338l0.833,-5.72l-7.107,-8.343l-2.106,-0.985l-2.304,1.696l-5.122,18.604L769.869,98.338zM605.64,69.025l3.037,3.876l3.277,-2.693l0.391,-2.719l2.521,-1.272l3.764,-2.235l1.085,-2.624l-4.159,-3.847l-2.643,2.903l-1.61,4.125l-0.573,-4.649l-4.26,0.211l-5.474,3.152l6.24,0.521L605.64,69.025zM736.889,82.071l4.653,5.73l7.81,4.202l6.118,-1.803l0.691,-13.623l-6.456,-16.04l-5.448,-9.023l-6.065,4.109l-7.28,11.834l3.825,3.27L736.889,82.071z" transform="translate(0,-230)" stroke-width="0.4237871567408244" fill="#4bd8b5" fill-opacity="0.8" stroke="#000000" stroke-opacity="1" class="amcharts-map-area amcharts-map-area-RU" role="menuitem" aria-label="Russia  " countryId="RU" cursor="pointer"></path>
                </g>
            </g>
        </g>

    </svg>
